<svg xmlns="http://www.w3.org/2000/svg" xmlns:xlink="http://www.w3.org/1999/xlink" width="369" zoomAndPan="magnify" viewBox="0 0 276.75 36.000001" height="48" preserveAspectRatio="xMidYMid meet" version="1.0"><defs><g/></defs><g fill="#ffffff" fill-opacity="1"><g transform="translate(15.326324, 33.88593)"><g><path d="M 4.796875 -23.671875 C 4.359375 -25.015625 3.945312 -26.273438 3.5625 -27.453125 C 3.175781 -28.628906 2.734375 -29.722656 2.234375 -30.734375 C 1.742188 -31.742188 1.113281 -32.675781 0.34375 -33.53125 L 12.515625 -33.53125 C 12.117188 -33.164062 11.820312 -32.742188 11.625 -32.265625 C 11.425781 -31.785156 11.328125 -31.316406 11.328125 -30.859375 C 11.328125 -30.304688 11.457031 -29.484375 11.71875 -28.390625 C 11.988281 -27.296875 12.332031 -26.039062 12.75 -24.625 C 13.164062 -23.21875 13.609375 -21.75 14.078125 -20.21875 C 14.554688 -18.695312 15.023438 -17.21875 15.484375 -15.78125 C 15.953125 -14.34375 16.351562 -13.054688 16.6875 -11.921875 C 17.21875 -12.492188 17.710938 -13.257812 18.171875 -14.21875 C 18.640625 -15.1875 19.050781 -16.25 19.40625 -17.40625 C 19.769531 -18.5625 20.046875 -19.742188 20.234375 -20.953125 C 20.429688 -22.160156 20.53125 -23.285156 20.53125 -24.328125 C 20.53125 -25.941406 20.382812 -27.328125 20.09375 -28.484375 C 19.8125 -29.648438 19.472656 -30.601562 19.078125 -31.34375 C 18.679688 -32.082031 18.335938 -32.628906 18.046875 -32.984375 C 17.765625 -33.347656 17.625 -33.53125 17.625 -33.53125 L 25.46875 -33.53125 C 25.46875 -33.53125 25.617188 -33.414062 25.921875 -33.1875 C 26.222656 -32.957031 26.5625 -32.546875 26.9375 -31.953125 C 27.320312 -31.359375 27.664062 -30.519531 27.96875 -29.4375 C 28.269531 -28.363281 28.421875 -26.992188 28.421875 -25.328125 C 28.421875 -23.085938 28.097656 -20.8125 27.453125 -18.5 C 26.804688 -16.195312 25.976562 -13.9375 24.96875 -11.71875 C 23.957031 -9.507812 22.882812 -7.410156 21.75 -5.421875 C 20.613281 -3.429688 19.550781 -1.625 18.5625 0 L 12.125 0 C 11.550781 -1.851562 11.03125 -3.554688 10.5625 -5.109375 C 10.101562 -6.660156 9.65625 -8.140625 9.21875 -9.546875 C 8.789062 -10.960938 8.359375 -12.390625 7.921875 -13.828125 C 7.484375 -15.265625 7.007812 -16.78125 6.5 -18.375 C 5.988281 -19.976562 5.421875 -21.742188 4.796875 -23.671875 Z M 4.796875 -23.671875 "/></g></g></g><g fill="#ffffff" fill-opacity="1"><g transform="translate(61.534165, 33.88593)"><g><path d="M 3.65625 0 C 3.09375 -1.644531 2.628906 -3.191406 2.265625 -4.640625 C 1.910156 -6.085938 1.644531 -7.570312 1.46875 -9.09375 C 1.300781 -10.625 1.21875 -12.332031 1.21875 -14.21875 C 1.21875 -16.113281 1.457031 -18.015625 1.9375 -19.921875 C 2.425781 -21.835938 3.148438 -23.640625 4.109375 -25.328125 C 5.078125 -27.023438 6.257812 -28.523438 7.65625 -29.828125 C 9.0625 -31.140625 10.691406 -32.171875 12.546875 -32.921875 C 14.398438 -33.679688 16.453125 -34.0625 18.703125 -34.0625 C 19.785156 -34.0625 20.847656 -33.9375 21.890625 -33.6875 C 22.929688 -33.445312 23.859375 -33.09375 24.671875 -32.625 C 25.484375 -32.164062 26.050781 -31.625 26.375 -31 L 26.375 -4.34375 C 26.375 -3.488281 26.476562 -2.632812 26.6875 -1.78125 C 26.894531 -0.9375 27.195312 -0.34375 27.59375 0 L 17.34375 0 C 17.738281 -0.34375 18.039062 -0.929688 18.25 -1.765625 C 18.457031 -2.597656 18.5625 -3.445312 18.5625 -4.3125 L 18.5625 -10.015625 L 9.25 -10.015625 C 9.5 -8.035156 9.957031 -6.226562 10.625 -4.59375 C 11.300781 -2.96875 12.1875 -1.4375 13.28125 0 Z M 9.28125 -16.609375 L 18.5625 -16.609375 L 18.59375 -26.890625 C 17.0625 -26.890625 15.75 -26.578125 14.65625 -25.953125 C 13.570312 -25.328125 12.660156 -24.5 11.921875 -23.46875 C 11.179688 -22.4375 10.601562 -21.320312 10.1875 -20.125 C 9.769531 -18.9375 9.46875 -17.765625 9.28125 -16.609375 Z M 9.28125 -16.609375 "/></g></g></g><g fill="#ffffff" fill-opacity="1"><g transform="translate(106.9082, 33.88593)"><g><path d="M 1.90625 -29.1875 C 1.90625 -30.070312 1.800781 -30.929688 1.59375 -31.765625 C 1.382812 -32.597656 1.082031 -33.1875 0.6875 -33.53125 L 15.21875 -33.53125 C 16.582031 -33.53125 17.953125 -33.300781 19.328125 -32.84375 C 20.710938 -32.394531 21.972656 -31.71875 23.109375 -30.8125 C 24.242188 -29.914062 25.148438 -28.800781 25.828125 -27.46875 C 26.515625 -26.132812 26.859375 -24.585938 26.859375 -22.828125 C 26.859375 -20.421875 26.203125 -18.414062 24.890625 -16.8125 C 23.585938 -15.21875 21.90625 -14.109375 19.84375 -13.484375 L 21.828125 -8.234375 C 22.796875 -5.660156 23.695312 -3.722656 24.53125 -2.421875 C 25.363281 -1.128906 26.101562 -0.320312 26.75 0 L 15.296875 0 C 15.546875 -0.300781 15.6875 -0.726562 15.71875 -1.28125 C 15.757812 -1.84375 15.617188 -2.515625 15.296875 -3.296875 L 9.734375 -18.734375 L 9.734375 -4.3125 C 9.734375 -3.445312 9.835938 -2.597656 10.046875 -1.765625 C 10.253906 -0.929688 10.554688 -0.34375 10.953125 0 L 0.6875 0 C 1.082031 -0.34375 1.382812 -0.9375 1.59375 -1.78125 C 1.800781 -2.632812 1.90625 -3.488281 1.90625 -4.34375 Z M 9.734375 -18.734375 L 14.703125 -18.734375 C 15.691406 -18.734375 16.507812 -18.941406 17.15625 -19.359375 C 17.8125 -19.773438 18.300781 -20.300781 18.625 -20.9375 C 18.945312 -21.570312 19.109375 -22.203125 19.109375 -22.828125 C 19.109375 -23.921875 18.742188 -24.878906 18.015625 -25.703125 C 17.285156 -26.523438 16.203125 -26.9375 14.765625 -26.9375 L 9.734375 -26.9375 Z M 9.734375 -18.734375 "/></g></g></g><g fill="#ffffff" fill-opacity="1"><g transform="translate(151.900069, 33.88593)"><g><path d="M 0.6875 0 C 1.082031 -0.34375 1.382812 -0.9375 1.59375 -1.78125 C 1.800781 -2.632812 1.90625 -3.488281 1.90625 -4.34375 L 1.90625 -29.1875 C 1.90625 -30.070312 1.800781 -30.929688 1.59375 -31.765625 C 1.382812 -32.597656 1.082031 -33.1875 0.6875 -33.53125 L 10.953125 -33.53125 C 10.554688 -33.1875 10.253906 -32.601562 10.046875 -31.78125 C 9.835938 -30.957031 9.734375 -30.101562 9.734375 -29.21875 L 9.734375 -4.3125 C 9.734375 -3.445312 9.835938 -2.597656 10.046875 -1.765625 C 10.253906 -0.929688 10.554688 -0.34375 10.953125 0 Z M 0.6875 0 "/></g></g></g><g fill="#ffffff" fill-opacity="1"><g transform="translate(180.980126, 33.88593)"><g><path d="M 0.6875 -33.53125 L 9.734375 -33.53125 L 19.1875 -15.875 L 19.1875 -29.1875 C 19.1875 -30.070312 19.082031 -30.929688 18.875 -31.765625 C 18.664062 -32.597656 18.363281 -33.1875 17.96875 -33.53125 L 28.21875 -33.53125 C 27.820312 -33.1875 27.519531 -32.601562 27.3125 -31.78125 C 27.101562 -30.957031 27 -30.101562 27 -29.21875 L 27 -4.3125 C 27 -3.445312 27.101562 -2.597656 27.3125 -1.765625 C 27.519531 -0.929688 27.820312 -0.34375 28.21875 0 L 19.1875 0 L 9.734375 -17.65625 L 9.734375 -4.34375 C 9.734375 -3.488281 9.835938 -2.632812 10.046875 -1.78125 C 10.253906 -0.9375 10.554688 -0.34375 10.953125 0 L 0.6875 0 C 1.082031 -0.34375 1.382812 -0.929688 1.59375 -1.765625 C 1.800781 -2.597656 1.90625 -3.445312 1.90625 -4.3125 L 1.90625 -29.21875 C 1.90625 -30.101562 1.800781 -30.957031 1.59375 -31.78125 C 1.382812 -32.601562 1.082031 -33.1875 0.6875 -33.53125 Z M 0.6875 -33.53125 "/></g></g></g><g fill="#ffffff" fill-opacity="1"><g transform="translate(227.326927, 33.88593)"><g><path d="M 1.21875 -16.75 C 1.21875 -19.132812 1.523438 -21.375 2.140625 -23.46875 C 2.753906 -25.570312 3.691406 -27.414062 4.953125 -29 C 6.210938 -30.582031 7.835938 -31.820312 9.828125 -32.71875 C 11.828125 -33.613281 14.191406 -34.0625 16.921875 -34.0625 C 19.679688 -34.0625 22.050781 -33.613281 24.03125 -32.71875 C 26.007812 -31.820312 27.628906 -30.582031 28.890625 -29 C 30.148438 -27.414062 31.085938 -25.570312 31.703125 -23.46875 C 32.316406 -21.375 32.625 -19.132812 32.625 -16.75 C 32.625 -14.363281 32.316406 -12.128906 31.703125 -10.046875 C 31.085938 -7.960938 30.148438 -6.125 28.890625 -4.53125 C 27.628906 -2.945312 26.007812 -1.707031 24.03125 -0.8125 C 22.050781 0.0703125 19.679688 0.515625 16.921875 0.515625 C 14.191406 0.515625 11.828125 0.0703125 9.828125 -0.8125 C 7.835938 -1.707031 6.210938 -2.945312 4.953125 -4.53125 C 3.691406 -6.125 2.753906 -7.960938 2.140625 -10.046875 C 1.523438 -12.128906 1.21875 -14.363281 1.21875 -16.75 Z M 9.03125 -16.78125 C 9.03125 -14.863281 9.300781 -13.097656 9.84375 -11.484375 C 10.394531 -9.867188 11.25 -8.585938 12.40625 -7.640625 C 13.5625 -6.691406 15.054688 -6.21875 16.890625 -6.21875 C 18.742188 -6.21875 20.253906 -6.691406 21.421875 -7.640625 C 22.585938 -8.585938 23.441406 -9.867188 23.984375 -11.484375 C 24.535156 -13.097656 24.8125 -14.863281 24.8125 -16.78125 C 24.8125 -18.726562 24.535156 -20.5 23.984375 -22.09375 C 23.441406 -23.695312 22.585938 -24.972656 21.421875 -25.921875 C 20.253906 -26.867188 18.742188 -27.34375 16.890625 -27.34375 C 15.054688 -27.34375 13.5625 -26.867188 12.40625 -25.921875 C 11.25 -24.972656 10.394531 -23.695312 9.84375 -22.09375 C 9.300781 -20.5 9.03125 -18.726562 9.03125 -16.78125 Z M 9.03125 -16.78125 "/></g></g></g></svg>