<svg xmlns="http://www.w3.org/2000/svg" xmlns:xlink="http://www.w3.org/1999/xlink" width="41" zoomAndPan="magnify" viewBox="0 0 30.75 36.000001" height="48" preserveAspectRatio="xMidYMid meet" version="1.0"><defs><g/><clipPath id="6527ce8831"><path d="M 0.292969 0 L 30.210938 0 L 30.210938 34 L 0.292969 34 Z M 0.292969 0 " clip-rule="nonzero"/></clipPath></defs><g clip-path="url(#6527ce8831)"><g fill="#ffffff" fill-opacity="1"><g transform="translate(0.293919, 33.672224)"><g><path d="M 10.5 0 L 0 -33.390625 L 10.015625 -33.390625 L 16.453125 -12.96875 C 17.023438 -14.019531 17.601562 -15.164062 18.1875 -16.40625 C 18.78125 -17.644531 19.273438 -18.910156 19.671875 -20.203125 C 20.078125 -21.492188 20.28125 -22.707031 20.28125 -23.84375 C 20.28125 -24.769531 20.085938 -25.644531 19.703125 -26.46875 C 19.316406 -27.300781 18.75 -27.988281 18 -28.53125 C 17.257812 -29.070312 16.316406 -29.34375 15.171875 -29.34375 L 15.171875 -29.578125 C 16.890625 -30.023438 18.582031 -30.664062 20.25 -31.5 C 21.914062 -32.34375 23.484375 -33.210938 24.953125 -34.109375 C 26.503906 -33.597656 27.691406 -32.617188 28.515625 -31.171875 C 29.347656 -29.722656 29.765625 -27.9375 29.765625 -25.8125 C 29.765625 -23.894531 29.421875 -21.882812 28.734375 -19.78125 C 28.054688 -17.6875 27.164062 -15.539062 26.0625 -13.34375 C 24.96875 -11.15625 23.789062 -8.941406 22.53125 -6.703125 C 21.28125 -4.460938 20.082031 -2.226562 18.9375 0 Z M 10.5 0 "/></g></g></g></g></svg>